<svg xmlns="http://www.w3.org/2000/svg" version="1.1" xmlns:xlink="http://www.w3.org/1999/xlink"
    xmlns:svgjs="http://svgjs.dev/svgjs" viewBox="0 0 800 800" opacity="0.71">
    <defs>
        <linearGradient x1="50%" y1="0%" x2="50%" y2="100%" id="vvvortex-grad">
            <stop stop-color="hsl(1.4, 100%, 67%)" stop-opacity="1" offset="0%"></stop>
            <stop stop-color="hsl(167, 52%, 78%)" stop-opacity="1" offset="100%"></stop>
        </linearGradient>
    </defs>
    <g stroke="url(#vvvortex-grad)" fill="none" stroke-linecap="round">
        <circle r="361" cx="400" cy="400" stroke-width="11" stroke-dasharray="31 46"
            stroke-dashoffset="25" transform="rotate(260, 400, 400)" opacity="1.00"></circle>
        <circle r="342" cx="400" cy="400" stroke-width="10" stroke-dasharray="26 14"
            stroke-dashoffset="25" transform="rotate(121, 400, 400)" opacity="0.95"></circle>
        <circle r="323" cx="400" cy="400" stroke-width="10" stroke-dasharray="13 15"
            stroke-dashoffset="25" transform="rotate(275, 400, 400)" opacity="0.89"></circle>
        <circle r="304" cx="400" cy="400" stroke-width="10" stroke-dasharray="33 43"
            stroke-dashoffset="25" transform="rotate(333, 400, 400)" opacity="0.84"></circle>
        <circle r="285" cx="400" cy="400" stroke-width="9" stroke-dasharray="35 50"
            stroke-dashoffset="25" transform="rotate(282, 400, 400)" opacity="0.79"></circle>
        <circle r="266" cx="400" cy="400" stroke-width="9" stroke-dasharray="40 22"
            stroke-dashoffset="25" transform="rotate(354, 400, 400)" opacity="0.74"></circle>
        <circle r="247" cx="400" cy="400" stroke-width="9" stroke-dasharray="53 52"
            stroke-dashoffset="25" transform="rotate(129, 400, 400)" opacity="0.68"></circle>
        <circle r="228" cx="400" cy="400" stroke-width="8" stroke-dasharray="52 49"
            stroke-dashoffset="25" transform="rotate(117, 400, 400)" opacity="0.63"></circle>
        <circle r="209" cx="400" cy="400" stroke-width="8" stroke-dasharray="28 32"
            stroke-dashoffset="25" transform="rotate(207, 400, 400)" opacity="0.58"></circle>
        <circle r="190" cx="400" cy="400" stroke-width="8" stroke-dasharray="11 16"
            stroke-dashoffset="25" transform="rotate(317, 400, 400)" opacity="0.53"></circle>
        <circle r="171" cx="400" cy="400" stroke-width="7" stroke-dasharray="47 39"
            stroke-dashoffset="25" transform="rotate(71, 400, 400)" opacity="0.47"></circle>
        <circle r="152" cx="400" cy="400" stroke-width="7" stroke-dasharray="35 36"
            stroke-dashoffset="25" transform="rotate(78, 400, 400)" opacity="0.42"></circle>
        <circle r="133" cx="400" cy="400" stroke-width="7" stroke-dasharray="54 21"
            stroke-dashoffset="25" transform="rotate(38, 400, 400)" opacity="0.37"></circle>
        <circle r="114" cx="400" cy="400" stroke-width="6" stroke-dasharray="35 20"
            stroke-dashoffset="25" transform="rotate(205, 400, 400)" opacity="0.31"></circle>
        <circle r="95" cx="400" cy="400" stroke-width="6" stroke-dasharray="15 34"
            stroke-dashoffset="25" transform="rotate(157, 400, 400)" opacity="0.26"></circle>
        <circle r="76" cx="400" cy="400" stroke-width="6" stroke-dasharray="28 11"
            stroke-dashoffset="25" transform="rotate(267, 400, 400)" opacity="0.21"></circle>
        <circle r="57" cx="400" cy="400" stroke-width="5" stroke-dasharray="13 25"
            stroke-dashoffset="25" transform="rotate(348, 400, 400)" opacity="0.16"></circle>
        <circle r="38" cx="400" cy="400" stroke-width="5" stroke-dasharray="22 52"
            stroke-dashoffset="25" transform="rotate(236, 400, 400)" opacity="0.10"></circle>
        <circle r="19" cx="400" cy="400" stroke-width="5" stroke-dasharray="35 36"
            stroke-dashoffset="25" transform="rotate(119, 400, 400)" opacity="0.05"></circle>
    </g>
</svg>